# xmcd
#
# Track frame offsets: 
#        150
#        16920
#        34460
#        51549
#        64585
#        83395
#        97719
#        113405
#        130846
#        148733
#        166962
#        183465
#        201414
#        218076
#        236791
#
# Disc length: 3364 seconds
#
# Revision: 0
# Processed by: cddbd v1.5.2PL0 Copyright (c) Steve Scherf et al.
# Submitted via: ExactAudioCopy v0.99pb5
#
DISCID=cc0d220f
DTITLE=Various Artist - KHP Music Presents: Keep On Gettin It On
DYEAR=2012
DGENRE=Beach
TTITLE0=Al Lindsey - Lets Keep On Getting It On
TTITLE1=Rev Bubba D. Liverance and CHP - You Used To Shake It For Me
TTITLE2=Marsha Morgan and Gary Lowder - Private Number
TTITLE3=Gary Brown - Sticky Situation
TTITLE4=Breeze Band - My Heart
TTITLE5=Carolina Breakers - Ive Been Lovin You
TTITLE6=Curley White - Walkin The Dog
TTITLE7=Roy Roberts - Hey Baby
TTITLE8=Kathy Lynn - Do You Believe In Love Forever
TTITLE9=Hip Pocket - Good To Be Me
TTITLE10=Marsha Morgan Band - You Can Have My Husband
TTITLE11=Sweet T - Good For What Ails Ya
TTITLE12=Karen Clayton and Pat Christie - Were On To Something
TTITLE13=Rickie Fox - I Cry
TTITLE14=Paul Craver - Your Man
EXTD=
EXTT0=
EXTT1=
EXTT2=
EXTT3=
EXTT4=
EXTT5=
EXTT6=
EXTT7=
EXTT8=
EXTT9=
EXTT10=
EXTT11=
EXTT12=
EXTT13=
EXTT14=
PLAYORDER=
